<?xml version="1.0" standalone="no"?>
<!DOCTYPE svg PUBLIC "-//W3C//DTD SVG 20010904//EN"
 "http://www.w3.org/TR/2001/REC-SVG-20010904/DTD/svg10.dtd">
<svg version="1.0" xmlns="http://www.w3.org/2000/svg"
 width="300.000000pt" height="300.000000pt" viewBox="0 0 300.000000 300.000000"
 preserveAspectRatio="xMidYMid meet">
<metadata>
Created by potrace 1.11, written by Peter Selinger 2001-2013
</metadata>
<g transform="translate(0.000000,300.000000) scale(0.100000,-0.100000)"
fill="#000000" stroke="none">
<path d="M0 1500 l0 -1290 1500 0 1500 0 0 1290 0 1290 -1500 0 -1500 0 0
-1290z m1203 755 c239 -50 353 -214 303 -437 -34 -151 -154 -294 -322 -380
-211 -109 -466 -141 -519 -65 -24 34 -19 81 40 376 30 152 52 286 49 297 -5
17 1 24 27 33 47 16 96 14 103 -5 3 -9 -19 -145 -50 -302 -61 -305 -62 -330
-14 -343 48 -13 137 -9 214 11 208 53 344 205 354 395 2 44 -1 98 -7 121 -58
216 -358 299 -620 171 -46 -22 -90 -55 -143 -109 -74 -75 -78 -77 -84 -53 -29
118 131 247 361 290 94 18 225 18 308 0z m900 -760 c239 -50 353 -214 303
-437 -34 -151 -154 -294 -322 -380 -211 -109 -466 -141 -519 -65 -24 34 -19
81 40 376 30 152 52 286 49 297 -5 17 1 24 27 33 47 16 96 14 103 -5 3 -9 -19
-145 -50 -302 -61 -305 -62 -330 -14 -343 48 -13 137 -9 214 11 208 53 344
205 354 395 2 44 -1 98 -7 121 -58 216 -358 299 -620 171 -46 -22 -90 -55
-143 -109 -74 -75 -78 -77 -84 -53 -29 118 131 247 361 290 94 18 225 18 308
0z"/>
</g>
</svg>
